<svg width="240" height="180" viewBox="0 0 240 180" fill="none" xmlns="http://www.w3.org/2000/svg">
<g clip-path="url(#clip0_3797_30388)">
<path d="M150.603 84.8308H152.976L156.349 95.0462H156.411L159.784 84.8308H161.782L165.217 95.0462H165.28L168.652 84.8308H170.901L166.216 98.1847H164.155L160.783 87.9693H160.72L157.41 98.1847H155.349L150.603 84.8308Z" fill="#60605C"/>
<path d="M48.1771 98.2462L55.7966 80.0308H57.7327L65.2897 98.2462H62.7915L60.6056 92.8924H52.8612L50.6753 98.2462H48.1771ZM56.7334 82.677L53.2984 91.1077H60.0435L56.7334 82.677Z" fill="#60605C"/>
<path d="M66.6012 101.938C67.1008 102 67.4756 102 67.8503 102C68.0377 102 68.1626 101.938 68.2875 101.877C68.4124 101.815 68.5997 101.631 68.7871 101.385C68.9745 101.138 69.1618 100.769 69.4117 100.277C69.6615 99.7846 69.9113 99.1077 70.2236 98.2461L64.4153 84.8307H66.7886L71.4102 96.2154L75.6571 84.8307H77.843L71.1604 101.754C70.8481 102.554 70.4109 103.108 69.7864 103.477C69.2243 103.846 68.4748 104.031 67.7254 104.031C67.538 104.031 67.3507 104.031 67.1633 104.031C66.9759 104.031 66.7886 103.969 66.6012 103.908V101.938Z" fill="#60605C"/>
<path d="M79.7167 79.5385H82.0275V94.8C82.0275 95.2923 82.1524 95.6615 82.4022 95.9692C82.6521 96.2769 83.0268 96.4 83.5264 96.4C83.7138 96.4 83.9636 96.4 84.2134 96.3385C84.4632 96.2769 84.7131 96.2154 84.9629 96.0923L85.3376 97.9385C84.9629 98.1231 84.5257 98.2461 83.9636 98.3077C83.464 98.4308 82.9643 98.4923 82.5896 98.4923C81.7152 98.4923 81.0282 98.2461 80.4661 97.7538C79.9665 97.2615 79.7167 96.5846 79.7167 95.6615V79.5385Z" fill="#60605C"/>
<path d="M91.0833 98.4923C90.3963 98.4923 89.7718 98.3693 89.2097 98.1847C88.6476 98 88.148 97.6923 87.7108 97.3231C87.2736 96.9539 86.9613 96.5231 86.7115 96.0308C86.4617 95.5385 86.3368 94.9847 86.3368 94.4308C86.3368 93.8154 86.4617 93.2 86.774 92.7077C87.0238 92.2154 87.461 91.7231 87.9606 91.3539C88.4603 90.9847 89.0848 90.677 89.7718 90.4923C90.4588 90.3077 91.2707 90.1847 92.0826 90.1847C92.7696 90.1847 93.3942 90.2462 94.0812 90.3693C94.7682 90.4923 95.3303 90.677 95.8924 90.8616V89.7539C95.8924 88.6462 95.5801 87.7847 94.9555 87.1693C94.331 86.5539 93.4566 86.2462 92.27 86.2462C90.896 86.2462 89.4595 86.7385 87.9606 87.7847L87.2112 86.3077C88.0855 85.7539 88.9599 85.2616 89.8343 85.0154C90.7086 84.7077 91.583 84.5847 92.5198 84.5847C94.2685 84.5847 95.6425 85.077 96.6418 86C97.6411 86.9231 98.1407 88.277 98.1407 90V95.477C98.1407 96.0308 98.3905 96.277 98.8902 96.277V98.2462C98.7028 98.3077 98.5779 98.3077 98.3906 98.3077C98.2656 98.3077 98.0783 98.3077 97.9534 98.3077C97.5786 98.3077 97.2039 98.1847 96.8292 98C96.4545 97.8154 96.2671 97.4462 96.2046 96.9539L96.1422 96.0308C95.8299 96.4616 95.4552 96.7693 95.0805 97.077C94.7057 97.3847 94.2685 97.6308 93.8314 97.877C93.3942 98.0616 92.8945 98.2462 92.4574 98.3077C92.0202 98.4308 91.583 98.4923 91.0833 98.4923ZM91.7079 96.8308C92.4574 96.8308 93.1444 96.7077 93.8314 96.3385C94.5184 96.0308 95.0804 95.6616 95.4552 95.2308C95.7675 94.8616 95.9548 94.4923 95.9548 94.1847V92.2154C95.3927 92.0308 94.8306 91.8462 94.2685 91.7231C93.644 91.6 93.0819 91.5385 92.5198 91.5385C91.3332 91.5385 90.3963 91.7847 89.7093 92.2154C89.0223 92.7077 88.6476 93.3231 88.6476 94.1231C88.6476 94.4923 88.7101 94.8 88.835 95.1077C88.9599 95.4154 89.1473 95.7231 89.4595 95.9693C89.7093 96.2154 90.0216 96.4 90.3963 96.5231C90.7711 96.7077 91.2083 96.8308 91.7079 96.8308Z" fill="#60605C"/>
<path d="M110.757 84.3384V98.2461H108.446V80.0307H110.257L121.686 94.2461V80.0307H124.059V98.2461H122.061L110.757 84.3384Z" fill="#60605C"/>
<path d="M133.678 98.4923C132.679 98.4923 131.742 98.3077 130.867 97.9384C129.993 97.5692 129.306 97.0769 128.681 96.4615C128.057 95.8461 127.62 95.1077 127.245 94.2461C126.933 93.3846 126.745 92.523 126.745 91.5384C126.745 90.6153 126.933 89.6923 127.245 88.8923C127.557 88.0307 128.057 87.2923 128.681 86.6769C129.306 86.0615 130.055 85.5692 130.867 85.2C131.742 84.8307 132.679 84.6461 133.678 84.6461C134.677 84.6461 135.614 84.8307 136.488 85.2C137.3 85.5692 138.05 86.0615 138.612 86.6769C139.174 87.2923 139.673 88.0307 139.986 88.8307C140.298 89.6307 140.485 90.4923 140.485 91.4153C140.485 91.6 140.485 91.7846 140.485 91.9077C140.485 92.0923 140.485 92.1538 140.423 92.2769H129.119C129.181 92.9538 129.306 93.5692 129.556 94.123C129.806 94.6769 130.18 95.1692 130.555 95.5384C130.992 95.9077 131.429 96.2154 131.992 96.4615C132.491 96.7077 133.053 96.7692 133.678 96.7692C134.115 96.7692 134.49 96.7077 134.927 96.5846C135.302 96.4615 135.676 96.3384 136.051 96.1538C136.426 95.9692 136.676 95.723 136.988 95.4769C137.238 95.2307 137.488 94.923 137.612 94.5538L139.611 95.1077C139.361 95.6 139.049 96.0307 138.674 96.4615C138.299 96.8923 137.8 97.2 137.3 97.5077C136.801 97.8154 136.238 98.0615 135.614 98.1846C134.989 98.4307 134.365 98.4923 133.678 98.4923ZM138.299 90.6769C138.237 90.0615 138.112 89.4461 137.8 88.8923C137.55 88.3384 137.175 87.9077 136.801 87.5384C136.363 87.1692 135.926 86.8615 135.364 86.6769C134.802 86.4923 134.24 86.3692 133.615 86.3692C132.991 86.3692 132.429 86.4923 131.867 86.6769C131.305 86.8615 130.867 87.1692 130.43 87.6C130.055 87.9692 129.681 88.4615 129.431 88.9538C129.181 89.5077 129.056 90.0615 128.994 90.6769H138.299Z" fill="#60605C"/>
<path d="M149.916 97.5692C149.791 97.6307 149.603 97.6923 149.353 97.8154C149.104 97.9384 148.854 98 148.604 98.1231C148.292 98.2461 147.979 98.3077 147.667 98.3692C147.355 98.4307 146.98 98.4307 146.605 98.4307C145.794 98.4307 145.044 98.1846 144.42 97.7538C143.795 97.3231 143.483 96.5846 143.483 95.6615V86.6154H141.609V84.8307H143.483V80.3384H145.794V84.8307H148.854V86.6154H145.794V94.9231C145.856 95.4154 145.981 95.7846 146.293 96.0307C146.605 96.2769 146.918 96.3384 147.355 96.3384C147.792 96.3384 148.229 96.2769 148.604 96.0923C148.979 95.9692 149.229 95.8461 149.353 95.7231L149.916 97.5692Z" fill="#60605C"/>
<path d="M177.833 98.4923C176.833 98.4923 175.897 98.3077 175.022 97.9385C174.21 97.5693 173.461 97.077 172.836 96.4C172.212 95.7847 171.775 95.0462 171.462 94.1847C171.15 93.3231 170.963 92.4616 170.963 91.5385C170.963 90.6154 171.15 89.6923 171.462 88.8923C171.775 88.0308 172.274 87.2923 172.899 86.677C173.523 86.0616 174.21 85.5693 175.085 85.1385C175.897 84.7693 176.833 84.5847 177.833 84.5847C178.832 84.5847 179.769 84.7693 180.643 85.1385C181.518 85.5077 182.205 86 182.829 86.677C183.454 87.2923 183.891 88.0308 184.266 88.8923C184.578 89.7539 184.765 90.6154 184.765 91.5385C184.765 92.4616 184.578 93.3231 184.266 94.1847C183.953 95.0462 183.454 95.7847 182.829 96.4C182.205 97.0154 181.518 97.5077 180.643 97.9385C179.769 98.3077 178.832 98.4923 177.833 98.4923ZM173.336 91.6C173.336 92.277 173.461 92.9539 173.711 93.5693C173.961 94.1847 174.273 94.677 174.648 95.1077C175.085 95.5385 175.522 95.9077 176.084 96.1539C176.646 96.4 177.208 96.5231 177.833 96.5231C178.457 96.5231 179.019 96.4 179.581 96.1539C180.144 95.9077 180.581 95.5385 181.018 95.1077C181.455 94.677 181.767 94.1231 182.017 93.5077C182.267 92.8923 182.392 92.277 182.392 91.5385C182.392 90.8616 182.267 90.1847 182.017 89.6308C181.767 89.0154 181.455 88.5231 181.018 88.0308C180.581 87.6 180.144 87.2308 179.581 86.9847C179.019 86.7385 178.457 86.6154 177.833 86.6154C177.208 86.6154 176.646 86.7385 176.084 86.9847C175.522 87.2308 175.085 87.6 174.648 88.0923C174.21 88.5231 173.898 89.077 173.711 89.6923C173.461 90.2462 173.336 90.9231 173.336 91.6Z" fill="#60605C"/>
<path d="M194.133 86.8615C193.009 86.9231 191.947 87.1692 191.073 87.7231C190.199 88.2769 189.574 89.0154 189.199 90V98.2462H186.889V84.8923H189.012V87.9692C189.449 87.0461 190.074 86.3077 190.886 85.6923C191.635 85.0769 192.447 84.7692 193.321 84.7692H193.759C193.884 84.7692 194.009 84.7692 194.071 84.7692V86.8615H194.133Z" fill="#60605C"/>
<path d="M206.437 98.2461L201.753 91.7231L199.13 94.1231V98.2461H196.819V79.5385H199.13V91.8461L206.125 84.8923H208.623L203.189 90.4308L208.873 98.2461H206.437Z" fill="#60605C"/>
<path d="M215.493 98.4923C214.369 98.4923 213.307 98.3077 212.245 98C211.184 97.6923 210.247 97.2 209.497 96.5231L210.497 94.9846C211.309 95.6 212.121 96.0308 212.87 96.3385C213.682 96.6461 214.494 96.7692 215.368 96.7692C216.367 96.7692 217.117 96.5846 217.741 96.2154C218.304 95.8461 218.616 95.2923 218.616 94.6154C218.616 94.3077 218.553 94 218.366 93.7538C218.241 93.5077 217.991 93.3231 217.679 93.1385C217.367 92.9538 216.992 92.8308 216.492 92.6461C215.993 92.5231 215.431 92.3385 214.806 92.2154C213.994 92.0308 213.307 91.7846 212.683 91.6C212.121 91.4154 211.621 91.1692 211.246 90.9231C210.871 90.6769 210.559 90.3692 210.434 90C210.247 89.6308 210.184 89.2 210.184 88.6461C210.184 87.9692 210.309 87.4154 210.559 86.8615C210.809 86.3692 211.184 85.8769 211.683 85.5692C212.121 85.2 212.683 84.9538 213.307 84.7692C213.932 84.5846 214.619 84.5231 215.368 84.5231C216.367 84.5231 217.367 84.7077 218.241 85.0154C219.115 85.3231 219.865 85.7538 220.489 86.3077L219.428 87.6615C218.866 87.1692 218.241 86.8 217.492 86.5538C216.805 86.3077 216.055 86.1846 215.306 86.1846C214.494 86.1846 213.744 86.3692 213.182 86.7385C212.62 87.1077 212.308 87.6615 212.308 88.4C212.308 88.7077 212.37 88.9538 212.495 89.1385C212.62 89.3231 212.808 89.5077 213.057 89.6923C213.307 89.8769 213.682 90 214.057 90.1231C214.494 90.2461 214.931 90.3692 215.556 90.4923C216.43 90.6769 217.242 90.9231 217.929 91.1077C218.616 91.2923 219.178 91.6 219.615 91.8461C220.052 92.1538 220.365 92.4615 220.614 92.8923C220.802 93.2615 220.927 93.7538 220.927 94.3077C220.927 95.5385 220.427 96.5231 219.49 97.2615C218.428 98.1231 217.117 98.4923 215.493 98.4923Z" fill="#60605C"/>
<path d="M31.3768 77.3847V77.3231L31.4393 77.3847H31.3768Z" fill="#60605C"/>
<path d="M38.0369 89.8729C37.6927 86.0724 35.5297 82.5795 34.5914 79.732C34.3329 78.9565 34.1367 78.2456 33.9864 77.6087C33.9039 77.2521 33.8354 76.9196 33.7777 76.6128C33.5348 75.2969 33.513 74.428 33.5504 74.1445C33.5691 73.9982 33.4017 73.9717 33.2436 74.0262C33.0606 74.3026 31.5228 76.6214 31.4348 76.7125C31.4325 76.7148 31.4286 76.7187 31.4255 76.7226C31.4356 76.7288 31.4403 76.7413 31.4387 76.7615C31.4371 76.7771 31.4332 76.7966 31.4239 76.8168C31.216 77.3463 28.6667 82.553 28.2938 86.6198C27.92 90.6874 28.4191 92.3443 27.9917 95.1887C27.5611 98.0322 25.2726 100.981 25.2392 101.025C24.719 101.694 22.5271 103.827 21.0649 104.374C21.0649 104.374 21.0399 104.826 21.4557 105.295C21.8676 105.766 23.1399 106 23.1399 106C23.1399 106 27.1235 101.83 27.3041 101.561C27.3345 101.517 27.3532 101.485 27.361 101.471C27.361 101.471 28.2167 101.193 29.4423 100.626C32.6908 99.1216 38.5547 95.5943 38.0369 89.8729Z" fill="#60605C"/>
<path d="M33.2438 74.0264C33.2438 74.0264 33.1916 74.0397 33.1527 74.0623C31.3867 75.0971 24.0138 79.5454 21.301 83.2346C18.7572 86.6933 16.8199 93.898 22.5928 99.1327C22.9657 99.4691 24.231 100.538 24.231 100.538C24.231 100.538 25.9269 99.3733 26.2609 96.1669C26.5926 92.9574 25.8763 90.3233 26.5895 86.2635C27.4928 81.1252 30.9709 77.2025 31.4124 76.7353C31.4179 76.7299 31.4218 76.726 31.4257 76.7221C31.428 76.719 31.4319 76.7151 31.435 76.7127C31.523 76.6216 33.2438 74.0264 33.2438 74.0264Z" fill="#60605C"/>
<path d="M39.0934 81.4114C38.9548 80.607 38.8661 79.8736 38.81 79.2203C38.6488 77.3025 38.789 75.2594 38.8856 74.9191C38.9346 74.7486 38.6909 74.7081 38.5009 74.7844C38.0166 74.9775 36.1658 76.214 34.8522 76.7995C34.8903 76.9685 34.9262 77.1382 34.9667 77.308C35.1208 77.9659 35.3147 78.6457 35.5405 79.327C35.8263 80.1959 36.2483 81.163 36.6968 82.1853C37.681 84.4317 38.7937 86.9786 39.0452 89.7498C39.0701 90.0285 39.0771 90.2995 39.0771 90.5673C39.1059 91.4783 38.9712 92.3309 38.7104 93.1267C37.6631 96.6142 34.5789 99.0895 31.8357 100.67C31.7719 100.707 31.103 101.35 32.7047 100.564C36.0256 98.9322 40.7558 95.6635 41.0128 91.1887C41.2316 87.3765 39.6042 84.3647 39.0934 81.4114Z" fill="#60605C"/>
</g>
<defs>
<clipPath id="clip0_3797_30388">
<rect width="202.353" height="32" fill="white" transform="translate(18.8235 74)"/>
</clipPath>
</defs>
</svg>
