<svg width="240" height="180" viewBox="0 0 240 180" fill="none" xmlns="http://www.w3.org/2000/svg">
<path d="M141.845 90.1793C141.845 91.6405 142.327 92.8909 143.29 93.9306C144.253 94.9703 145.451 95.4902 146.884 95.4902C148.317 95.4902 149.515 94.982 150.478 93.9658C151.441 92.9495 151.923 91.6873 151.923 90.1793C151.923 88.6713 151.434 87.3904 150.456 86.3366C149.478 85.2829 148.292 84.756 146.898 84.756C145.504 84.756 144.311 85.2946 143.319 86.3717C142.327 87.4489 141.835 88.7181 141.845 90.1793ZM140.4 96.6774C138.624 94.8931 137.736 92.72 137.736 90.1582C137.736 87.5964 138.624 85.3929 140.4 83.5477C142.177 81.7025 144.333 80.7798 146.869 80.7798C148.796 80.7798 150.497 81.2997 151.973 82.3394C152.072 81.8962 152.329 81.5007 152.699 81.2224C153.082 80.9264 153.56 80.7697 154.05 80.7798C154.568 80.7798 155.025 80.9719 155.422 81.3559C155.612 81.5372 155.762 81.754 155.863 81.9931C155.964 82.2321 156.014 82.4886 156.01 82.7468V97.0849C156.01 99.5342 155.115 101.632 153.324 103.379C151.533 105.126 149.381 106 146.869 106C145.477 106.013 144.103 105.695 142.869 105.072C142.622 104.968 142.402 104.813 142.224 104.617C142.046 104.422 141.914 104.191 141.838 103.941C141.75 103.69 141.714 103.425 141.734 103.161C141.754 102.896 141.829 102.639 141.954 102.403C142.067 102.168 142.228 101.957 142.428 101.785C142.627 101.612 142.862 101.48 143.116 101.398C143.634 101.225 144.201 101.253 144.698 101.475C145.357 101.822 146.189 101.995 147.196 101.995C148.203 101.995 149.166 101.618 150.086 100.864C150.992 100.141 151.617 99.1396 151.857 98.0262C150.386 99.0191 148.723 99.5132 146.869 99.5085C144.328 99.5085 142.172 98.5671 140.4 96.6844" fill="#60605C"/>
<path d="M163.968 86.2386C163.053 87.2783 162.595 88.5662 162.595 90.1024C162.595 91.6385 163.053 92.9498 163.968 94.0364C164.96 94.9543 166.153 95.4133 167.547 95.4133C168.941 95.4133 170.134 94.9543 171.126 94.0364C172.119 92.9452 172.612 91.6338 172.608 90.1024C172.603 88.5709 172.109 87.283 171.126 86.2386C170.033 85.2973 168.839 84.8266 167.547 84.8266C166.255 84.8266 165.062 85.2973 163.968 86.2386ZM167.62 99.4597C165.054 99.4597 162.886 98.5441 161.114 96.7129C159.343 94.8817 158.455 92.6899 158.45 90.1375C158.45 87.5851 159.345 85.3863 161.136 83.541C162.927 81.6958 165.079 80.7732 167.591 80.7732C170.103 80.7732 172.24 81.7075 174.002 83.5762C175.763 85.4448 176.644 87.667 176.644 90.2429C176.644 92.8187 175.756 94.9473 173.98 96.6286C172.305 98.5113 170.185 99.4526 167.62 99.4526" fill="#60605C"/>
<path d="M123.637 84.2776C124.566 83.2706 125.851 82.7672 127.492 82.7672C128.44 82.7672 129.251 82.9264 129.924 83.2449C130.597 83.5634 131.103 84.0059 131.441 84.5726C131.781 85.1299 132.031 85.734 132.182 86.364C132.339 87.0489 132.414 87.7489 132.407 88.4504H122.068C122.18 86.6754 122.702 85.2845 123.637 84.2776ZM121.742 97.0279C123.184 98.5781 125.224 99.3532 127.862 99.3532C128.859 99.3603 129.851 99.2059 130.795 98.8966C131.715 98.5922 132.388 98.2948 132.814 98.0044C133.193 97.756 133.546 97.4712 133.866 97.1544C134.142 96.8734 134.28 96.5736 134.28 96.2552C134.287 95.9537 134.173 95.6614 133.961 95.4403C133.862 95.332 133.74 95.2457 133.603 95.1875C133.467 95.1293 133.319 95.1005 133.169 95.1031C132.959 95.1031 132.726 95.1874 132.472 95.3489C131.843 95.8459 131.15 96.2615 130.41 96.5854C129.709 96.8851 128.859 97.0349 127.862 97.0349C126.061 97.0349 124.646 96.4566 123.615 95.2998C122.584 94.143 122.068 92.5905 122.068 90.6422H133.278C133.641 90.6422 133.934 90.572 134.157 90.4315C134.393 90.2782 134.561 90.0452 134.629 89.7781C134.707 89.5307 134.76 89.2767 134.788 89.0194C134.808 88.8087 134.817 88.5113 134.817 88.1273C134.816 87.6238 134.775 87.1212 134.694 86.6239C134.598 86.0629 134.462 85.5089 134.287 84.966C134.103 84.3715 133.821 83.8095 133.453 83.3011C133.072 82.7767 132.626 82.3 132.124 81.882C131.606 81.4512 130.95 81.1093 130.156 80.8564C129.363 80.6035 128.472 80.4794 127.485 80.4841C124.982 80.4841 123.039 81.3013 121.654 82.9358C120.27 84.5703 119.578 86.8932 119.578 89.9046C119.578 93.108 120.299 95.4848 121.742 97.0349V97.0279ZM105.747 84.2776C106.676 83.2706 107.961 82.7672 109.602 82.7672C110.551 82.7672 111.359 82.9264 112.027 83.2449C112.695 83.5634 113.203 84.0083 113.552 84.5796C113.891 85.1369 114.141 85.741 114.292 86.371C114.449 87.056 114.524 87.756 114.517 88.4574H104.186C104.297 86.6825 104.82 85.2915 105.754 84.2846L105.747 84.2776ZM103.852 97.0349C105.294 98.5851 107.335 99.3602 109.972 99.3602C110.97 99.3673 111.961 99.2129 112.906 98.9036C113.825 98.5992 114.498 98.3018 114.924 98.0114C115.304 97.7631 115.656 97.4784 115.977 97.1614C116.253 96.8804 116.391 96.5807 116.391 96.2622C116.398 95.9607 116.283 95.6684 116.071 95.4473C115.972 95.339 115.85 95.2528 115.714 95.1945C115.577 95.1363 115.429 95.1075 115.28 95.1101C115.067 95.1101 114.835 95.1921 114.583 95.356C113.954 95.8528 113.261 96.2684 112.521 96.5924C111.819 96.8921 110.97 97.042 109.972 97.042C108.172 97.042 106.756 96.4636 105.725 95.3068C104.694 94.15 104.181 92.5975 104.186 90.6492H115.396C115.759 90.6492 116.052 90.579 116.274 90.4385C116.51 90.2852 116.679 90.0522 116.746 89.7852C116.824 89.5377 116.878 89.2837 116.906 89.0265C116.926 88.8157 116.935 88.5183 116.935 88.1343C116.935 87.6308 116.893 87.1282 116.812 86.6309C116.719 86.07 116.585 85.516 116.412 84.973C116.227 84.3787 115.945 83.8167 115.578 83.3081C115.197 82.7837 114.751 82.3071 114.249 81.8891C113.731 81.4582 113.075 81.1163 112.281 80.8634C111.487 80.6105 110.597 80.4864 109.609 80.4911C107.107 80.4911 105.164 81.3083 103.779 82.9428C102.395 84.5773 101.701 86.8932 101.696 89.8905C101.696 93.0939 102.417 95.4707 103.859 97.0209L103.852 97.0349ZM85.5994 96.487C86.1754 97.227 87.0515 97.8826 88.2277 98.454C89.4039 99.0254 90.7156 99.3134 92.1628 99.3181C93.4116 99.3181 94.5176 99.1401 95.4808 98.7842C96.4178 98.4447 97.2274 97.84 97.8041 97.049C98.3898 96.2528 98.6826 95.281 98.6826 94.1336C98.694 93.4499 98.5451 92.7726 98.247 92.1526C97.985 91.601 97.592 91.1171 97.0999 90.7406C96.5891 90.3624 96.0449 90.0286 95.4735 89.743C94.8765 89.4415 94.2606 89.1764 93.6294 88.9492L91.7853 88.2888C91.2269 88.0917 90.6834 87.857 90.1589 87.5863C89.7097 87.3576 89.3218 87.0304 89.0263 86.6309C88.7426 86.2457 88.5926 85.7832 88.598 85.3102C88.598 84.4672 88.9198 83.8607 89.5636 83.4908C90.2073 83.1208 91.0229 82.9358 92.0103 82.9358C92.9493 82.9358 93.7407 83.0739 94.3845 83.3503C95.0622 83.6485 95.6756 84.068 96.1923 84.5867C96.294 84.6937 96.4172 84.7795 96.5543 84.8389C96.6914 84.8982 96.8397 84.9299 96.9899 84.9318C97.1401 84.9338 97.2892 84.9061 97.4279 84.8503C97.5667 84.7946 97.6922 84.7121 97.7969 84.6077C97.904 84.5023 97.9882 84.377 98.0443 84.2394C98.1004 84.1019 98.1274 83.9548 98.1236 83.8069C98.1236 83.5634 98.0292 83.3151 97.8404 83.0622C96.6158 81.3903 94.6725 80.5543 92.0103 80.5543C90.2872 80.5543 88.8787 80.9524 87.7848 81.7486C86.6909 82.5447 86.144 83.7202 86.144 85.2751C86.144 86.0432 86.2868 86.7293 86.5723 87.3334C86.8321 87.9041 87.2247 88.409 87.7195 88.8087C88.2228 89.2035 88.7651 89.5494 89.3385 89.8414C89.9355 90.1499 90.5542 90.4175 91.1899 90.6422L93.0341 91.2955C93.5885 91.4888 94.1314 91.7116 94.6604 91.9629C95.1102 92.1716 95.5031 92.4796 95.8075 92.8621C96.0936 93.2302 96.2444 93.6802 96.2359 94.1406C96.2359 95.096 95.8583 95.8009 95.1033 96.2552C94.3482 96.7095 93.3704 96.9366 92.1701 96.9366C90.1807 96.9366 88.5568 96.2926 87.2984 95.0047C87.0467 94.7518 86.7659 94.623 86.4562 94.6184C86.3081 94.6149 86.161 94.6419 86.0246 94.6977C85.8882 94.7534 85.7655 94.8365 85.6648 94.9415C85.453 95.157 85.3381 95.445 85.3453 95.7423C85.3541 96.0102 85.4451 96.2694 85.6067 96.487H85.5994ZM67.6736 98.7912C67.787 98.9053 67.9236 98.9955 68.0748 99.0559C68.226 99.1164 68.3885 99.1458 68.5521 99.1424C68.7147 99.1466 68.8764 99.1174 69.0265 99.0569C69.1767 98.9964 69.3119 98.9058 69.4233 98.7912C69.6556 98.5522 69.7809 98.234 69.7718 97.906V88.2256C69.7718 84.5632 71.478 82.7321 74.8904 82.7321C75.8052 82.7321 76.5675 82.8538 77.1774 83.0974C77.7561 83.314 78.2509 83.6995 78.5932 84.2003C78.9269 84.695 79.1632 85.2452 79.2902 85.8231C79.4318 86.5264 79.4975 87.2421 79.4862 87.9587V97.906C79.4805 98.0703 79.509 98.2339 79.5702 98.3872C79.6313 98.5405 79.7237 98.6803 79.842 98.7982C79.9554 98.9123 80.092 99.0025 80.2432 99.0629C80.3944 99.1234 80.5569 99.1529 80.7205 99.1495C80.8831 99.1536 81.0447 99.1245 81.1949 99.0639C81.345 99.0034 81.4803 98.9129 81.5917 98.7982C81.7076 98.679 81.7981 98.5389 81.8579 98.3857C81.9177 98.2327 81.9457 98.0696 81.9402 97.906V87.4388C81.9444 86.766 81.891 86.094 81.7805 85.4297C81.6625 84.7855 81.4498 84.1609 81.1488 83.5751C80.8534 82.9719 80.4362 82.4321 79.9218 81.9874C79.4136 81.5519 78.7311 81.1983 77.8744 80.9266C77.0177 80.655 76.0206 80.5169 74.8831 80.5122C73.6828 80.5122 72.6276 80.7698 71.7176 81.2849C70.8076 81.8001 70.1591 82.4534 69.7718 83.2449V81.9804C69.7773 81.8168 69.7493 81.6538 69.6895 81.5007C69.6297 81.3476 69.5393 81.2074 69.4233 81.0882C69.3119 80.9736 69.1767 80.883 69.0265 80.8225C68.8764 80.762 68.7147 80.7328 68.5521 80.737C68.3885 80.7336 68.226 80.763 68.0748 80.8235C67.9236 80.884 67.787 80.9741 67.6736 81.0882C67.5554 81.2062 67.4629 81.346 67.4018 81.4992C67.3407 81.6525 67.3121 81.8162 67.3178 81.9804V97.906C67.3121 98.0703 67.3407 98.2339 67.4018 98.3872C67.4629 98.5405 67.5554 98.6803 67.6736 98.7982V98.7912ZM60.2317 98.7982C60.3451 98.9123 60.4817 99.0025 60.6329 99.0629C60.7841 99.1234 60.9466 99.1529 61.1102 99.1495C61.2728 99.1536 61.4345 99.1245 61.5846 99.0639C61.7348 99.0034 61.87 98.9129 61.9815 98.7982C62.0974 98.679 62.1878 98.5389 62.2476 98.3857C62.3074 98.2327 62.3354 98.0696 62.33 97.906V81.9874C62.3354 81.8238 62.3074 81.6608 62.2476 81.5077C62.1878 81.3546 62.0974 81.2144 61.9815 81.0952C61.87 80.9806 61.7348 80.8901 61.5846 80.8295C61.4345 80.769 61.2728 80.7398 61.1102 80.744C60.9466 80.7406 60.7841 80.7701 60.6329 80.8305C60.4817 80.891 60.3451 80.9811 60.2317 81.0952C60.1138 81.2134 60.0216 81.3533 59.9605 81.5065C59.8994 81.6597 59.8706 81.8233 59.8759 81.9874V97.906C59.8702 98.0703 59.8988 98.2339 59.9599 98.3872C60.021 98.5405 60.1135 98.6803 60.2317 98.7982ZM60.0357 76.6554C60.2922 76.9177 60.6504 77.0488 61.1102 77.0488C61.57 77.0488 61.9258 76.9177 62.1775 76.6554C62.4292 76.3932 62.555 76.0255 62.555 75.5525C62.555 74.5175 62.0734 74 61.1102 74C60.147 74 59.6606 74.5198 59.6509 75.5595C59.6509 76.0326 59.7791 76.4002 60.0357 76.6625" fill="#60605C"/>
<path d="M180.095 99.6982H180.349L180.226 97.7523H179.892L179.536 98.6937C179.449 98.9395 179.376 99.1503 179.325 99.347H179.318C179.267 99.1433 179.202 98.9325 179.115 98.6937L178.773 97.7523H178.44L178.302 99.6982H178.548L178.599 98.8623C178.614 98.5742 178.636 98.2441 178.636 98.0052H178.643C178.701 98.237 178.781 98.4899 178.875 98.7639L179.202 99.6912H179.398L179.754 98.7499C179.855 98.4829 179.935 98.237 180.008 98.0122H180.015C180.015 98.2511 180.03 98.5813 180.044 98.8482L180.095 99.6982ZM177.256 99.6982H177.517V97.9631H178.135V97.7523H176.646V97.9631H177.256V99.6982Z" fill="#60605C"/>
</svg>
