<svg width="44" height="44" viewBox="0 0 44 44" fill="none" xmlns="http://www.w3.org/2000/svg">
<path fill-rule="evenodd" clip-rule="evenodd" d="M37.9934 18.4863C33.5098 10.9651 23.6842 8.4897 16.0526 12.8692C15.4802 13.1548 15.0032 13.5356 14.5263 13.9164C14.5263 13.4404 14.5263 12.8692 14.5263 12.3931C14.3355 10.2034 13.6677 8.01367 12.1414 6.29997C10.6151 4.58626 8.2302 3.6342 4.89138 3.91982L3.84204 4.01503L4.03283 4.96708C4.22362 6.20476 4.6052 8.3945 5.94073 10.2034C7.18086 12.0123 9.27954 13.3452 12.6184 13.3452C12.6184 13.9164 12.6184 14.4877 12.523 15.0589C12.523 15.2493 12.523 15.3445 12.4276 15.5349C9.85191 18.0103 7.94402 21.1521 6.99007 24.6747C5.74994 29.7206 6.5131 34.9569 9.08875 39.4316C9.37494 39.9076 9.94731 40.1933 10.4243 40.1933C10.7105 40.1933 10.9967 40.0981 11.1874 40.0028C11.569 39.8124 11.8552 39.4316 11.9506 39.0508C12.046 38.67 11.9506 38.1939 11.7598 37.8131C9.56573 34.1001 8.89796 29.7206 10.0427 25.5316C11.1874 21.3425 13.8585 17.8199 17.5789 15.6301C23.7796 12.1075 31.6973 14.1068 35.2269 20.1048C36.5625 22.3898 36.944 24.9603 36.2763 27.5309C35.6085 30.1014 33.9868 32.196 31.6973 33.5288C29.9802 34.5761 27.8815 34.8617 25.8782 34.2905C23.8749 33.8145 22.2532 32.5768 21.2039 30.8631C20.4407 29.5302 20.2499 28.0069 20.6315 26.5788C21.0131 25.0555 21.9671 23.8178 23.3026 23.0562C24.2565 22.485 25.4967 22.2946 26.546 22.5802C27.6907 22.8658 28.5493 23.5322 29.2171 24.5795C29.694 25.3411 30.648 25.6268 31.4111 25.1507C31.7927 24.9603 32.0789 24.5795 32.1743 24.1987C32.2697 23.8178 32.1743 23.3418 31.9835 22.961C30.9342 21.2473 29.3125 20.0096 27.4046 19.5336C25.4967 19.0576 23.4934 19.3432 21.6809 20.2952C19.5822 21.5329 18.1513 23.437 17.5789 25.722C17.0065 28.0069 17.2927 30.3871 18.5328 32.4816C19.9638 34.9569 22.3486 36.6706 25.1151 37.4323C27.8815 38.1939 30.8388 37.7179 33.319 36.2898C36.3717 34.5761 38.4704 31.7199 39.3289 28.2925C40.2829 24.9603 39.8059 21.4377 37.9934 18.4863Z" fill="#0E231F"/>
</svg>
