<svg width="240" height="180" viewBox="0 0 240 180" fill="none" xmlns="http://www.w3.org/2000/svg">
<g clip-path="url(#clip0_3797_30377)">
<path d="M95.6243 90.9465H91.3323C91.2249 90.9465 91.1203 90.9799 91.0332 91.042C90.9461 91.104 90.8809 91.1916 90.8468 91.2923L87.7388 100.347H87.6559L84.3999 91.2835C84.3639 91.1847 84.2979 91.0993 84.211 91.0389C84.1242 90.9786 84.0206 90.9463 83.9144 90.9465H79.7083C79.641 90.9465 79.5744 90.9596 79.5123 90.9851C79.4502 91.0106 79.3937 91.0479 79.3462 91.095C79.2986 91.1421 79.2609 91.198 79.2352 91.2595C79.2094 91.321 79.1962 91.3869 79.1962 91.4535V102.173H67.1844C65.5264 102.173 63.9363 101.521 62.7639 100.36C61.5915 99.1995 60.9329 97.6253 60.9329 95.9839C60.9329 94.3425 61.5915 92.7683 62.7639 91.6076C63.9363 90.4469 65.5264 89.7949 67.1844 89.7949C67.2584 89.7949 69.289 89.707 69.289 89.707C69.3443 89.7041 69.3982 89.689 69.4468 89.6628C69.4953 89.6366 69.5374 89.5999 69.5697 89.5555C69.6021 89.5111 69.624 89.46 69.6338 89.4061C69.6437 89.3522 69.6411 89.2968 69.6264 89.244L69.1972 87.6469C68.9108 86.5832 68.8462 85.4728 69.0071 84.3836C69.1681 83.2943 69.5513 82.2489 70.1335 81.311C70.7157 80.373 71.4847 79.5622 72.3936 78.928C73.3024 78.2937 74.3322 77.8493 75.4202 77.6217C76.5082 77.394 77.6315 77.3881 78.7219 77.6041C79.8123 77.8201 80.8468 78.2536 81.7625 78.8782C82.6782 79.5027 83.4559 80.3053 84.0483 81.237C84.6406 82.1686 85.0352 83.2099 85.208 84.2974L85.4241 85.6952C85.4333 85.7433 85.452 85.7891 85.4792 85.8299C85.5065 85.8708 85.5416 85.9058 85.5827 85.9331C85.6237 85.9604 85.6698 85.9793 85.7183 85.9888C85.7668 85.9982 85.8167 85.9981 85.8651 85.9883L87.1379 85.7275C87.4985 85.6502 87.8674 85.6177 88.2361 85.6308C89.8552 85.7128 91.572 86.6828 91.871 88.4645C91.8887 88.5477 91.9349 88.6223 92.0018 88.6757C92.0687 88.7291 92.1521 88.758 92.238 88.7575H95.0796C95.1312 88.7577 95.1822 88.7472 95.2295 88.7269C95.2768 88.7065 95.3194 88.6767 95.3544 88.6392C95.3895 88.6018 95.4163 88.5575 95.4332 88.5093C95.4501 88.4611 95.4567 88.4099 95.4526 88.359C95.1181 84.2974 91.723 82.3663 88.5291 82.2051C88.4526 82.2016 88.379 82.175 88.3181 82.1289C88.2573 82.0828 88.2121 82.0195 88.1887 81.9473C87.3328 79.3352 85.5635 77.1113 83.199 75.6756C80.8345 74.2399 78.0301 73.6867 75.2903 74.1156C72.5505 74.5444 70.0553 75.9272 68.2535 78.015C66.4518 80.1029 65.4618 82.7587 65.4617 85.5048C65.4617 85.7245 65.4617 85.9473 65.4795 86.17C65.4856 86.259 65.4591 86.3472 65.4047 86.4183C65.3502 86.4894 65.2717 86.5386 65.1835 86.5568C62.8346 87.0452 60.752 88.3781 59.3379 90.298C57.9238 92.2179 57.2787 94.5885 57.5271 96.9518C57.7756 99.3151 58.8999 101.503 60.683 103.094C62.4661 104.684 64.7814 105.564 67.1815 105.563H79.581C79.6214 105.575 79.6632 105.581 79.7053 105.581H82.0408C82.1088 105.581 82.1761 105.568 82.239 105.543C82.3019 105.517 82.3589 105.479 82.4069 105.431C82.4548 105.384 82.4927 105.327 82.5183 105.265C82.5438 105.202 82.5566 105.135 82.5558 105.068L82.4759 95.2073H82.538L86.1641 105.279C86.2 105.378 86.266 105.463 86.3529 105.524C86.4398 105.584 86.5434 105.616 86.6495 105.616H88.4255C88.5309 105.616 88.6337 105.584 88.7201 105.525C88.8064 105.465 88.8721 105.38 88.908 105.282L92.6346 95.2425H92.6968L92.6169 105.103C92.6161 105.171 92.6289 105.237 92.6544 105.3C92.68 105.362 92.7179 105.419 92.7658 105.467C92.8138 105.514 92.8708 105.552 92.9337 105.578C92.9965 105.603 93.0639 105.617 93.1319 105.616H95.6124C95.7485 105.616 95.8791 105.563 95.9756 105.468C96.0721 105.373 96.1267 105.244 96.1275 105.109V91.4535C96.1267 91.3208 96.0738 91.1936 95.9798 91.0989C95.8858 91.0042 95.7583 90.9496 95.6243 90.9465Z" fill="#60605C"/>
<path d="M113.281 92.6227C112.539 91.9467 111.667 91.4255 110.717 91.0901C108.634 90.3751 106.368 90.3751 104.285 91.0901C103.34 91.427 102.472 91.9481 101.734 92.6227C101.005 93.2999 100.431 94.1231 100.049 95.0374C99.6322 96.0447 99.4257 97.1254 99.4426 98.214C99.4283 99.3033 99.6346 100.384 100.049 101.393C100.432 102.322 101.005 103.161 101.734 103.858C102.468 104.551 103.336 105.09 104.285 105.443C106.364 106.186 108.639 106.186 110.717 105.443C111.671 105.092 112.543 104.552 113.281 103.858C114.008 103.16 114.581 102.321 114.965 101.393C115.378 100.384 115.585 99.3032 115.572 98.214C115.587 97.1255 115.381 96.0451 114.965 95.0374C114.582 94.1237 114.008 93.3007 113.281 92.6227ZM111.428 100.048C111.232 100.582 110.93 101.072 110.54 101.487C110.162 101.888 109.706 102.208 109.199 102.428C108.656 102.654 108.073 102.771 107.483 102.771C106.894 102.771 106.311 102.654 105.768 102.428C105.264 102.211 104.812 101.89 104.442 101.487C104.061 101.068 103.765 100.579 103.572 100.048C103.359 99.46 103.253 98.839 103.258 98.214C103.25 97.6084 103.35 97.0062 103.554 96.4352C103.741 95.9071 104.036 95.4232 104.421 95.0139C104.813 94.6033 105.287 94.2781 105.813 94.0591C106.339 93.8401 106.906 93.7322 107.476 93.7422C108.069 93.7358 108.657 93.8516 109.202 94.0821C109.707 94.2994 110.162 94.6165 110.54 95.0139C110.921 95.4262 111.216 95.9093 111.407 96.4352C111.62 97.0043 111.726 97.6071 111.721 98.214C111.734 98.8378 111.635 99.4591 111.428 100.048Z" fill="#60605C"/>
<path d="M145.024 92.6227C144.282 91.9473 143.41 91.4262 142.461 91.0901C141.427 90.7253 140.337 90.5438 139.24 90.5538C138.146 90.5428 137.058 90.7244 136.028 91.0901C135.083 91.4269 134.215 91.9481 133.477 92.6227C132.748 93.2991 132.173 94.1225 131.793 95.0373C131.38 96.0457 131.179 97.1263 131.201 98.2139C131.182 99.3022 131.383 100.383 131.793 101.393C132.174 102.322 132.748 103.162 133.477 103.858C134.211 104.551 135.079 105.09 136.028 105.443C137.055 105.823 138.144 106.012 139.24 106C140.339 106.01 141.43 105.822 142.461 105.443C143.414 105.091 144.286 104.552 145.024 103.858C145.751 103.161 146.324 102.322 146.705 101.393C147.12 100.384 147.326 99.3032 147.312 98.2139C147.329 97.1253 147.122 96.0446 146.705 95.0373C146.325 94.1232 145.751 93.3 145.024 92.6227ZM143.171 100.048C142.975 100.582 142.673 101.071 142.283 101.487C141.907 101.888 141.452 102.209 140.945 102.428C140.402 102.654 139.819 102.771 139.23 102.771C138.641 102.771 138.057 102.654 137.514 102.428C137.01 102.21 136.557 101.889 136.185 101.487C135.805 101.068 135.51 100.579 135.318 100.048C135.104 99.4603 134.997 98.839 135.004 98.2139C134.996 97.6083 135.096 97.0061 135.3 96.4351C135.487 95.9071 135.782 95.4231 136.168 95.0139C136.559 94.6033 137.033 94.278 137.559 94.0591C138.085 93.8401 138.652 93.7321 139.222 93.7421C139.815 93.7358 140.403 93.8515 140.948 94.082C141.463 94.2992 141.926 94.6195 142.31 95.0227C142.69 95.4357 142.985 95.9186 143.177 96.4439C143.39 97.0131 143.496 97.6158 143.491 98.2227C143.495 98.8452 143.386 99.4635 143.171 100.048Z" fill="#60605C"/>
<path d="M162.014 101.625C161.915 101.533 161.784 101.485 161.648 101.489C161.513 101.493 161.385 101.551 161.292 101.648C161.014 101.925 160.695 102.157 160.345 102.337C159.768 102.623 159.129 102.765 158.483 102.75C157.902 102.756 157.326 102.643 156.79 102.419C156.286 102.208 155.833 101.894 155.461 101.496C155.079 101.085 154.784 100.603 154.594 100.078C154.378 99.494 154.272 98.8763 154.28 98.255C154.273 97.6441 154.379 97.0372 154.594 96.4645C154.792 95.9381 155.094 95.456 155.482 95.0462C155.86 94.6435 156.319 94.3231 156.829 94.1055C157.373 93.8727 157.961 93.7559 158.554 93.7627C159.129 93.7637 159.698 93.8762 160.23 94.0938C160.594 94.2396 160.927 94.4535 161.209 94.7238C161.306 94.8185 161.436 94.8716 161.572 94.8716C161.708 94.8716 161.838 94.8185 161.935 94.7238L163.613 93.0623C163.662 93.0135 163.701 92.9552 163.727 92.8911C163.753 92.827 163.766 92.7583 163.764 92.6893C163.762 92.6202 163.746 92.5522 163.717 92.4894C163.688 92.4266 163.647 92.3702 163.595 92.3238C162.994 91.7838 162.289 91.3683 161.523 91.1018C160.536 90.7401 159.492 90.5546 158.439 90.5539C157.362 90.5447 156.292 90.7263 155.28 91.0901C154.334 91.4313 153.467 91.9563 152.729 92.6344C151.994 93.3172 151.413 94.146 151.024 95.0667C150.207 97.1021 150.207 99.3697 151.024 101.405C151.408 102.327 151.978 103.162 152.699 103.858C153.423 104.548 154.28 105.087 155.218 105.443C156.231 105.823 157.306 106.012 158.388 106C159.531 106.022 160.665 105.801 161.713 105.349C162.48 105.012 163.181 104.544 163.785 103.966C163.835 103.919 163.874 103.862 163.902 103.798C163.929 103.735 163.943 103.667 163.943 103.599C163.943 103.53 163.929 103.462 163.902 103.399C163.874 103.335 163.835 103.278 163.785 103.231L162.014 101.625Z" fill="#60605C"/>
<path d="M181.912 95.0374C181.531 94.1225 180.957 93.2991 180.228 92.6227C179.487 91.9468 178.616 91.4256 177.667 91.0901C176.633 90.7254 175.542 90.5439 174.444 90.5539C173.351 90.5431 172.264 90.7246 171.235 91.0901C170.29 91.427 169.422 91.9481 168.684 92.6227C167.954 93.2991 167.38 94.1225 166.999 95.0374C166.582 96.0447 166.376 97.1253 166.393 98.2139C166.378 99.3033 166.585 100.384 166.999 101.393C167.381 102.322 167.954 103.162 168.684 103.858C169.418 104.551 170.286 105.09 171.235 105.443C172.261 105.823 173.349 106.011 174.444 106C175.544 106.011 176.636 105.822 177.667 105.443C178.62 105.091 179.491 104.552 180.228 103.858C180.957 103.162 181.531 102.322 181.912 101.393C182.322 100.383 182.523 99.3023 182.504 98.2139C182.526 97.1264 182.324 96.0457 181.912 95.0374ZM178.378 100.048C178.181 100.582 177.879 101.071 177.49 101.487C177.114 101.888 176.658 102.209 176.152 102.428C175.609 102.654 175.026 102.771 174.436 102.771C173.847 102.771 173.264 102.654 172.721 102.428C172.216 102.21 171.764 101.889 171.392 101.487C171.012 101.068 170.717 100.579 170.525 100.048C170.114 98.8783 170.114 97.6053 170.525 96.4352C170.712 95.9069 171.009 95.423 171.395 95.0139C171.786 94.6037 172.26 94.2787 172.786 94.0597C173.311 93.8407 173.877 93.7326 174.447 93.7421C175.04 93.7355 175.627 93.8513 176.172 94.0821C176.679 94.2986 177.135 94.6158 177.513 95.0139C177.893 95.4277 178.187 95.9103 178.381 96.4352C178.593 97.0043 178.7 97.6071 178.694 98.2139C178.7 98.8392 178.593 99.4605 178.378 100.048Z" fill="#60605C"/>
<path d="M128.773 102.694H123.129C122.993 102.694 122.862 102.641 122.766 102.546C122.669 102.451 122.614 102.322 122.614 102.188V91.6381C122.614 91.5714 122.601 91.5053 122.575 91.4436C122.55 91.3819 122.512 91.3259 122.465 91.2787C122.417 91.2316 122.36 91.1943 122.298 91.1689C122.236 91.1436 122.169 91.1307 122.102 91.1311H119.517C119.45 91.1307 119.383 91.1436 119.321 91.1689C119.259 91.1943 119.202 91.2316 119.155 91.2787C119.107 91.3259 119.069 91.3819 119.044 91.4436C119.018 91.5053 119.005 91.5714 119.005 91.6381V105.279C119.005 105.414 119.059 105.542 119.155 105.638C119.251 105.733 119.382 105.786 119.517 105.786H128.762C128.83 105.787 128.897 105.775 128.961 105.75C129.024 105.725 129.082 105.688 129.13 105.641C129.179 105.594 129.218 105.537 129.245 105.475C129.271 105.413 129.285 105.347 129.286 105.279V103.207C129.286 103.14 129.273 103.074 129.247 103.012C129.222 102.95 129.184 102.894 129.137 102.846C129.089 102.798 129.033 102.76 128.97 102.734C128.908 102.708 128.841 102.695 128.773 102.694Z" fill="#60605C"/>
</g>
<defs>
<clipPath id="clip0_3797_30377">
<rect width="125.037" height="32" fill="white" transform="translate(57.4814 74)"/>
</clipPath>
</defs>
</svg>
