<svg width="240" height="180" viewBox="0 0 240 180" fill="none" xmlns="http://www.w3.org/2000/svg">
<g clip-path="url(#clip0_3797_30419)">
<path fill-rule="evenodd" clip-rule="evenodd" d="M106.002 71.6552C103.228 68.9833 99.8374 67.1124 95.8109 66.0312C94.4435 65.6641 93.6169 65.5773 90.958 65.5225C89.1954 65.4859 87.4648 65.495 87.1123 65.5422C84.7174 65.8638 81.1866 67.0688 79.0176 68.3045C71.368 72.6631 66.6282 81.2189 67.0229 89.957C67.3122 96.367 69.6671 101.765 74.0981 106.177C82.904 114.944 97.1379 115.073 106.112 106.468C107.471 105.165 107.624 104.95 107.623 104.34C107.623 103.749 107.497 103.554 106.642 102.817C105.199 101.575 104.797 101.631 102.996 103.33C100.696 105.5 98.0819 106.921 94.6206 107.884C93.2854 108.255 92.6604 108.315 90.2255 108.306C87.3121 108.295 85.9319 108.046 83.2723 107.052C81.7393 106.479 79.0327 104.719 77.6548 103.4C74.631 100.505 72.9674 97.6772 71.8727 93.5733C71.2832 91.3633 71.2986 86.8538 71.9034 84.5461C74.2209 75.7056 81.5554 69.8531 90.3171 69.8531C95.0711 69.8531 99.4272 71.5953 103.049 74.9454C104.591 76.3723 105.012 76.4425 106.186 75.4689C107.258 74.5797 107.44 74.3132 107.44 73.6261C107.44 73.1347 107.207 72.8153 106.002 71.6552ZM106.264 92.7895C108.175 83.9999 102.982 75.2788 94.4318 72.9163C92.9853 72.5167 92.3091 72.4371 90.3546 72.4371C88.1107 72.4369 87.9922 72.4561 87.5619 72.8901C87.0436 73.4123 87.0138 73.7993 87.3833 75.2059C87.7685 76.6729 88.086 76.8667 90.1085 76.87C92.2161 76.8733 93.7462 77.2333 95.7009 78.1856C98.4105 79.5057 100.595 82.1325 101.737 85.4453C102.116 86.544 102.186 87.0973 102.195 89.0507C102.204 91.0779 102.145 91.5379 101.714 92.8388C99.1494 100.58 90.4134 103.778 83.7711 99.4071C81.0711 97.6304 79.1577 94.775 78.4369 91.4467C78.2527 90.5955 77.6667 90.1581 76.7126 90.1593C75.4012 90.1608 74.4918 90.4759 74.2491 91.0127C73.9576 91.6577 74.3237 93.6918 75.0368 95.3877C77.7504 101.843 83.6039 105.849 90.3227 105.849C97.84 105.849 104.636 100.282 106.264 92.7895ZM165.034 77.7578L164.52 77.3125C163.7 76.602 162.166 76.7447 161.514 77.5922C161.345 77.812 161.29 80.3272 161.285 87.9571L161.28 98.0315L161.703 98.433C162.024 98.7368 162.354 98.8343 163.062 98.8343C164.871 98.8343 165.005 98.608 165.125 95.3417C165.177 93.9303 165.296 92.8419 165.4 92.8118C165.501 92.7828 166.616 94.1051 167.879 95.7504C169.995 98.5078 170.225 98.7462 170.812 98.7966C171.323 98.8406 171.602 98.7193 172.224 98.1823C172.861 97.6329 173 97.3981 173 96.8693C173 96.7559 173.002 96.6642 172.993 96.5736C172.946 96.109 172.606 95.6744 170.191 92.4987C169.2 91.1957 168.417 90.1054 168.451 90.0763C171.518 87.4443 172.752 86.3605 172.86 86.2021C172.934 86.0936 172.992 85.7141 172.99 85.3587C172.982 84.2733 171.605 82.9791 170.75 83.2525C170.435 83.3531 167.404 85.7737 166.957 86.2824C166.906 86.3397 166.477 86.702 166.004 87.0877L165.142 87.7889L165.034 77.7578ZM97.9169 83.9334C97.9169 82.5416 95.3872 80.4305 92.8876 79.7368C89.3868 78.7653 85.8251 79.7604 83.4159 82.3836C80.4926 85.5662 79.8773 89.6432 81.741 93.481C83.3148 96.7218 86.642 98.8343 90.1726 98.8343C92.8369 98.8343 94.8991 98.0023 96.7524 96.1796C98.4073 94.5518 98.3625 93.7935 96.5504 92.7625C95.2251 92.0086 94.8213 92.0332 93.7934 92.9298C92.4522 94.1001 91.9649 94.2925 90.3171 94.3026C89.1055 94.3102 88.6975 94.2321 87.9586 93.8517C86.3606 93.0291 85.3125 91.4493 85.1475 89.6142C84.7322 84.9976 89.8847 82.1438 93.4585 85.0109C94.905 86.1713 95.0669 86.2212 95.9617 85.7829C97.1491 85.2014 97.9169 84.4751 97.9169 83.9334ZM114.399 81.5625C114.399 80.6906 114.31 80.3105 114.019 79.938C113.682 79.5059 113.513 79.4516 112.503 79.4516C110.832 79.4516 110.554 79.7099 110.55 81.262C110.547 82.7057 110.428 82.9534 109.612 83.2215C108.876 83.4631 108.544 84.07 108.544 85.1741C108.544 86.2453 108.866 86.8671 109.512 87.0406C109.802 87.1188 110.012 87.1742 110.163 87.3007C110.554 87.6283 110.553 88.4326 110.553 91.3445C110.553 94.9576 110.567 95.0973 111.013 95.983C111.585 97.1183 112.739 98.0163 114.227 98.483C115.683 98.9397 116.629 98.9386 117.041 98.4795C117.404 98.0751 117.613 96.8676 117.44 96.1739C117.298 95.6002 116.642 94.9578 116.199 94.9578C116.019 94.9578 115.54 94.8241 115.135 94.6607L114.399 94.3639V90.8832C114.399 88.3975 114.375 87.5094 114.786 87.1932C115.035 87.0007 115.446 87.0201 116.12 87.0201C117.36 87.0201 117.512 86.8106 117.512 85.094C117.512 83.5098 117.192 83.1436 115.809 83.1436C115.275 83.1436 114.739 83.0439 114.618 82.922C114.495 82.7976 114.399 82.2016 114.399 81.5625ZM124.571 84.0892C124.239 84.3988 123.828 84.2456 123.518 83.6962C123.212 83.1548 123.176 83.1436 121.745 83.1436C120.662 83.1436 120.21 83.2185 119.997 83.4336C119.745 83.6876 119.709 84.6283 119.709 90.9668C119.709 96.5233 119.763 98.2844 119.941 98.5299C120.137 98.8002 120.43 98.8415 121.819 98.7959L123.463 98.742L123.562 94.6809C123.653 90.8957 123.689 90.5632 124.086 89.789C124.32 89.3322 124.688 88.7632 124.903 88.5247C125.479 87.8864 126.934 87.1992 127.972 87.0755C129.106 86.94 129.599 86.3965 129.596 85.2876C129.592 84.1533 129.446 83.7952 128.839 83.4337C128.419 83.184 128.084 83.1347 127.432 83.2268C126.44 83.3669 124.824 83.8539 124.571 84.0892ZM142.596 85.6659C141.536 84.4968 139.97 83.6228 138.409 83.3291C137.284 83.1173 136.79 83.1196 135.674 83.3411C134.4 83.5938 132.976 84.3442 131.969 85.2934C127.886 89.1437 128.923 95.7715 133.985 98.1666C135.07 98.6803 135.357 98.7344 137.015 98.7379C138.587 98.7415 139.008 98.6731 139.991 98.2558C140.822 97.9028 141.135 97.8367 141.135 98.0147C141.135 98.812 143.447 99.1561 144.274 98.4817C144.697 98.1367 144.708 98.0529 144.768 94.559C144.861 89.2061 144.513 87.7804 142.596 85.6659ZM159.631 86.5494C159.631 85.5662 158.139 84.2762 156.264 83.6379C152.237 82.2673 147.878 84.4954 146.576 88.5892C145.936 90.6002 146.015 92.2512 146.842 94.1965C148.911 99.063 155.226 100.383 159.036 96.7458C159.868 95.952 159.848 95.2001 158.969 94.2199C158.422 93.6093 158.188 93.481 157.624 93.481C157.185 93.481 156.828 93.6067 156.625 93.8332C156.451 94.0268 155.887 94.368 155.372 94.5915C152.741 95.7325 150.002 93.8836 150.034 90.9889C150.049 89.6604 150.382 88.9486 151.396 88.073C152.957 86.7262 154.847 86.7893 156.578 88.246C157.328 88.8773 157.865 88.7989 158.811 87.9196C159.464 87.3132 159.631 87.0334 159.631 86.5494ZM134.228 93.6047C132.369 91.4704 133.383 88.086 136.148 87.1944C136.914 86.9472 138.181 87.1552 139.055 87.6719C140.028 88.2464 140.796 89.5035 140.911 90.71C141.265 94.432 136.679 96.4187 134.228 93.6047ZM124.477 103.686C124.165 103.768 124.104 103.696 124.104 103.247C124.104 102.894 124.011 102.711 123.83 102.711C123.607 102.711 123.555 103.006 123.555 104.257V105.803L124.134 105.92C124.516 105.996 124.86 105.94 125.142 105.754C126.007 105.182 125.444 103.431 124.477 103.686ZM130.308 103.782C130.684 103.738 130.789 103.625 130.789 103.265C130.789 102.904 130.684 102.791 130.308 102.747C130.004 102.711 129.788 102.796 129.719 102.978C129.528 103.48 129.793 103.842 130.308 103.782ZM126.617 105.018L126.401 104.383C126.184 103.745 125.753 103.391 125.752 103.849C125.751 103.985 125.89 104.487 126.06 104.966C126.356 105.797 126.354 105.854 126.032 106.213C125.661 106.627 125.754 106.882 126.212 106.705C126.509 106.59 127.278 105.06 127.501 104.141C127.687 103.373 127.252 103.508 126.908 104.326L126.617 105.018ZM124.565 105.387C124.184 105.387 123.996 104.924 124.18 104.44C124.371 103.937 124.928 104.232 124.928 104.836C124.928 105.263 124.846 105.387 124.565 105.387ZM137.61 106.03C137.384 105.693 136.91 105.313 136.557 105.186C135.645 104.856 135.082 104.877 134.32 105.269C133.728 105.572 133.622 105.58 133.379 105.336C133.229 105.184 132.976 105.11 132.817 105.172C132.569 105.268 132.528 105.749 132.528 108.592C132.528 111.554 132.561 111.914 132.844 112.023C133.453 112.259 133.627 111.635 133.627 109.22C133.627 107.045 133.648 106.919 134.077 106.487C134.416 106.144 134.721 106.034 135.323 106.034C136.809 106.034 137.095 106.662 137.102 109.945C137.107 111.93 137.195 112.221 137.731 112.014C137.978 111.918 138.022 111.505 138.022 109.272C138.022 106.849 137.99 106.594 137.61 106.03ZM144.003 106.486C144.169 106.05 143.403 105.357 142.504 105.129C142.026 105.007 141.805 104.95 141.587 104.957C141.392 104.963 141.199 105.021 140.826 105.129C140.052 105.355 139.487 106.108 139.487 106.914C139.487 107.756 140.344 108.584 141.7 109.054C142.246 109.243 142.795 109.482 142.921 109.584C143.269 109.868 143.194 110.611 142.796 110.827C142.191 111.152 140.867 111.056 140.353 110.649C139.849 110.249 139.391 110.173 139.215 110.46C139.008 110.797 139.513 111.417 140.28 111.768C142.172 112.634 144.249 111.806 144.249 110.187C144.249 109.303 143.784 108.839 142.126 108.067C140.775 107.438 140.586 107.291 140.586 106.872C140.586 106.546 140.727 106.33 141.03 106.191C141.562 105.946 142.659 106.121 142.971 106.5C143.264 106.857 143.865 106.848 144.003 106.486ZM150.956 107.566C150.809 106.482 150.392 105.726 149.759 105.396C148.126 104.545 146.424 105.052 145.587 106.639C145.16 107.45 145.157 109.781 145.582 110.588C146.34 112.025 148.336 112.546 149.926 111.722C150.792 111.273 151.08 110.729 150.56 110.528C150.39 110.462 150.021 110.546 149.74 110.713C149.449 110.886 148.835 111.018 148.32 111.018C147.583 111.018 147.321 110.926 146.929 110.531C146.663 110.263 146.446 109.938 146.446 109.808C146.446 109.678 146.396 109.44 146.335 109.279C146.238 109.023 146.485 108.987 148.336 108.987C150.87 108.987 151.13 108.846 150.956 107.566ZM157.617 107.866C157.617 106.738 157.006 105.702 156.095 105.285C154.205 104.42 152.41 105.415 151.925 107.596C151.359 110.149 152.704 112.13 155 112.122C155.987 112.119 157.301 111.486 157.4 110.966C157.489 110.498 156.92 110.363 156.332 110.713C156.04 110.887 155.427 111.018 154.904 111.018C154.105 111.018 153.926 110.945 153.513 110.45C153.252 110.137 153.039 109.812 153.039 109.726C153.039 109.641 152.989 109.44 152.928 109.279C152.83 109.024 153.072 108.987 154.863 108.987C157.329 108.987 157.617 108.87 157.617 107.866ZM130.88 108.663C130.88 107.059 130.798 105.669 130.691 105.468C130.501 105.111 130.134 105.002 129.904 105.234C129.836 105.301 129.781 106.829 129.781 108.629C129.781 111.556 129.815 111.914 130.097 112.023C130.736 112.27 130.88 111.652 130.88 108.663ZM164.128 105.287C163.936 105.447 163.686 105.453 163.169 105.308C161.799 104.925 160.822 105.114 159.85 105.953C157.941 107.601 158.173 110.208 160.362 111.71C161.031 112.169 162.651 112.288 163.32 111.927C163.657 111.745 163.67 111.762 163.477 112.126C163.162 112.718 162.269 113.039 161.519 112.83C160.484 112.542 159.836 112.983 160.094 113.801C160.36 114.648 162.937 114.754 164 113.962C165.246 113.033 165.393 112.555 165.462 109.203C165.496 107.544 165.474 105.988 165.413 105.744C165.285 105.229 164.522 104.957 164.128 105.287ZM172.439 106.601C172.113 106.146 171.558 105.674 171.111 105.47C170.218 105.061 169.114 105.022 168.318 105.371C167.554 105.707 166.438 107.063 166.296 107.829C165.866 110.139 167.442 112.125 169.705 112.125C170.758 112.125 171.407 111.843 172.108 111.08C172.849 110.273 173 109.847 173 108.566C173 107.537 172.926 107.278 172.439 106.601ZM146.473 107.233C146.552 106.929 146.846 106.536 147.126 106.362C147.829 105.923 148.918 105.941 149.372 106.398C149.734 106.763 150.048 107.633 149.88 107.803C149.83 107.853 149.011 107.87 148.06 107.84L146.33 107.787L146.473 107.233ZM152.994 107.416C153.043 107.161 153.326 106.746 153.624 106.493C154.704 105.577 156.518 106.152 156.518 107.41V107.88H152.906L152.994 107.416ZM160.437 109.432C160.114 108.652 160.257 107.954 160.88 107.28C162.201 105.848 164.367 107.552 163.594 109.415C163.285 110.161 162.829 110.464 162.012 110.464C161.2 110.464 160.74 110.162 160.437 109.432ZM168.659 110.186C167.736 109.534 167.734 107.821 168.655 107.099C169.416 106.503 170.769 106.792 171.148 107.632C171.511 108.435 171.4 109.509 170.902 110.011C170.376 110.541 169.283 110.627 168.659 110.186ZM172.32 112.257C172.653 112.594 173 112.427 173 111.93C173 111.698 172.874 111.571 172.644 111.571C172.151 111.571 171.986 111.921 172.32 112.257Z" fill="#60605C"/>
</g>
<defs>
<clipPath id="clip0_3797_30419">
<rect width="106" height="49" fill="white" transform="translate(67 65.5)"/>
</clipPath>
</defs>
</svg>
