<svg width="154" height="32" viewBox="0 0 154 32" fill="none" xmlns="http://www.w3.org/2000/svg">
<g clip-path="url(#clip0_3648_30744)">
<path d="M52.023 18.08C52.8246 18.24 53.5461 18.64 54.1873 19.44C54.7484 20.16 55.0691 21.04 55.0691 21.92C55.0691 22.72 54.8286 23.44 54.4278 24.08C54.027 24.72 53.4659 25.2 52.6643 25.6C51.8627 25.92 50.981 26.16 49.9389 26.16H43.6865V10.56H49.6984C50.7405 10.56 51.7024 10.72 52.4238 11.12C53.2254 11.44 53.7865 12 54.1873 12.56C54.5881 13.12 54.7484 13.84 54.7484 14.56C54.7484 15.44 54.508 16.24 54.027 16.8C53.5461 17.36 52.9048 17.84 52.023 18.08ZM46.2516 17.04H49.3778C50.1794 17.04 50.9008 16.88 51.3016 16.48C51.7826 16.08 52.023 15.52 52.023 14.8C52.023 14.08 51.7826 13.52 51.3016 13.2C50.8207 12.8 50.1794 12.56 49.3778 12.56H46.2516V17.04ZM49.6984 24C50.5802 24 51.2214 23.76 51.7024 23.36C52.1834 22.96 52.4238 22.32 52.4238 21.6C52.4238 20.8 52.1834 20.24 51.6222 19.76C51.0611 19.28 50.4199 19.12 49.5381 19.12H46.1714V24H49.6984Z" fill="white"/>
<path d="M60.1994 10.5142V26.08H57.6343V10.5142H60.1994Z" fill="white"/>
<path d="M74.5476 13.76V26.08H71.9825V24.64C71.5817 25.12 71.0206 25.52 70.3793 25.84C69.7381 26.16 69.0166 26.24 68.2952 26.24C67.3333 26.24 66.4515 26 65.65 25.6C64.8484 25.2 64.2873 24.56 63.8063 23.84C63.4055 23.04 63.165 22.08 63.165 20.96V13.68H65.7301V20.56C65.7301 21.68 65.9706 22.48 66.5317 23.12C67.0928 23.68 67.8142 24 68.7762 24C69.7381 24 70.4595 23.68 71.0206 23.12C71.5817 22.56 71.9023 21.68 71.9023 20.56V13.68H74.5476V13.76Z" fill="white"/>
<path d="M88.9764 19.6C88.9764 20.08 88.9764 20.48 88.8962 20.88H79.4375C79.5176 21.84 79.9184 22.64 80.5597 23.28C81.201 23.84 82.0026 24.16 82.9645 24.16C84.3272 24.16 85.2891 23.6 85.8502 22.4H88.5756C88.1748 23.52 87.5335 24.48 86.5716 25.2C85.6097 25.92 84.4073 26.24 82.9645 26.24C81.7621 26.24 80.72 26 79.7581 25.44C78.7962 24.88 78.0748 24.16 77.5938 23.2C77.0327 22.24 76.7922 21.12 76.7922 19.84C76.7922 18.56 77.0327 17.44 77.5938 16.48C78.1549 15.52 78.8764 14.8 79.7581 14.24C80.72 13.68 81.7621 13.44 82.9645 13.44C84.1668 13.44 85.2089 13.68 86.0907 14.24C86.9724 14.72 87.6938 15.44 88.2549 16.4C88.7359 17.36 88.9764 18.4 88.9764 19.6ZM86.3311 18.8C86.3311 17.84 86.0105 17.12 85.2891 16.56C84.6478 16 83.8462 15.68 82.8041 15.68C81.9224 15.68 81.201 16 80.5597 16.56C79.9184 17.12 79.5176 17.84 79.4375 18.8H86.3311Z" fill="white"/>
<path d="M100.679 22.96H94.1864L93.0642 26.16H90.4189L96.0301 10.56H98.9959L104.607 26.16H101.801L100.679 22.96ZM99.9578 20.8L97.3928 13.6L94.8277 20.8H99.9578Z" fill="white"/>
<path d="M109.257 15.6C109.657 15.04 110.299 14.56 111.02 14.16C111.742 13.76 112.623 13.6 113.585 13.6C114.627 13.6 115.669 13.84 116.551 14.4C117.433 14.96 118.154 15.68 118.635 16.64C119.116 17.6 119.437 18.72 119.437 19.92C119.437 21.12 119.196 22.24 118.635 23.28C118.154 24.24 117.433 25.04 116.551 25.6C115.669 26.16 114.707 26.4 113.585 26.4C112.623 26.4 111.822 26.24 111.1 25.84C110.379 25.44 109.738 24.96 109.337 24.4V32H106.772V13.76H109.337V15.6H109.257ZM116.792 19.84C116.792 18.96 116.631 18.24 116.23 17.68C115.91 17.04 115.429 16.56 114.868 16.24C114.307 15.92 113.665 15.76 113.024 15.76C112.383 15.76 111.742 15.92 111.18 16.24C110.619 16.56 110.138 17.04 109.818 17.68C109.497 18.32 109.337 19.04 109.337 19.92C109.337 20.8 109.497 21.52 109.818 22.16C110.138 22.8 110.619 23.28 111.18 23.6C111.742 23.92 112.383 24.08 113.024 24.08C113.665 24.08 114.307 23.92 114.868 23.6C115.429 23.28 115.91 22.8 116.23 22.16C116.631 21.44 116.792 20.72 116.792 19.84Z" fill="white"/>
<path d="M124.246 15.6C124.647 15.04 125.288 14.56 126.01 14.16C126.731 13.76 127.613 13.6 128.575 13.6C129.617 13.6 130.659 13.84 131.541 14.4C132.422 14.96 133.144 15.68 133.625 16.64C134.106 17.6 134.426 18.72 134.426 19.92C134.426 21.12 134.186 22.24 133.625 23.28C133.144 24.24 132.422 25.04 131.541 25.6C130.659 26.16 129.697 26.4 128.575 26.4C127.613 26.4 126.811 26.24 126.09 25.84C125.368 25.44 124.727 24.96 124.326 24.4V32H121.761V13.76H124.326V15.6H124.246ZM131.781 19.84C131.781 18.96 131.621 18.24 131.22 17.68C130.899 17.04 130.418 16.56 129.857 16.24C129.296 15.92 128.655 15.76 128.014 15.76C127.372 15.76 126.731 15.92 126.17 16.24C125.609 16.56 125.128 17.04 124.807 17.68C124.487 18.32 124.326 19.04 124.326 19.92C124.326 20.8 124.487 21.52 124.807 22.16C125.128 22.8 125.609 23.28 126.17 23.6C126.731 23.92 127.372 24.08 128.014 24.08C128.655 24.08 129.296 23.92 129.857 23.6C130.418 23.28 130.899 22.8 131.22 22.16C131.621 21.44 131.781 20.72 131.781 19.84Z" fill="white"/>
<path d="M139.236 10.5142V26.08H136.671V10.5142H139.236Z" fill="white"/>
<path d="M153.744 19.6C153.744 20.08 153.744 20.48 153.664 20.88H144.206C144.286 21.84 144.686 22.64 145.328 23.28C145.969 23.84 146.771 24.16 147.733 24.16C149.095 24.16 150.057 23.6 150.618 22.4H153.344C152.943 23.52 152.302 24.48 151.34 25.2C150.378 25.92 149.175 26.24 147.733 26.24C146.53 26.24 145.488 26 144.526 25.44C143.564 24.88 142.843 24.16 142.362 23.2C141.801 22.24 141.56 21.12 141.56 19.84C141.56 18.56 141.801 17.44 142.362 16.48C142.923 15.52 143.644 14.8 144.526 14.24C145.488 13.68 146.53 13.44 147.733 13.44C148.935 13.44 149.977 13.68 150.859 14.24C151.74 14.72 152.462 15.44 153.023 16.4C153.504 17.36 153.744 18.4 153.744 19.6ZM151.019 18.8C151.019 17.84 150.698 17.12 149.977 16.56C149.336 16 148.534 15.68 147.492 15.68C146.61 15.68 145.889 16 145.248 16.56C144.606 17.12 144.206 17.84 144.125 18.8H151.019Z" fill="white"/>
<path fill-rule="evenodd" clip-rule="evenodd" d="M29.3382 12.56C25.5707 6.24001 17.3144 4.16001 10.9017 7.84001C10.4207 8.08001 10.0199 8.40001 9.61914 8.72001C9.61914 8.32001 9.61914 7.84001 9.61914 7.44001C9.45882 5.60001 8.89771 3.76001 7.61517 2.32001C6.33263 0.880006 4.32866 0.0800064 1.5231 0.320006L0.641357 0.400006L0.801675 1.20001C0.961992 2.24001 1.28263 4.08001 2.40485 5.60001C3.44691 7.12001 5.21041 8.24001 8.01596 8.24001C8.01596 8.72001 8.01596 9.20001 7.9358 9.68001C7.9358 9.84001 7.9358 9.92001 7.85564 10.08C5.69136 12.16 4.08818 14.8 3.2866 17.76C2.24453 22 2.8858 26.4 5.05009 30.16C5.29056 30.56 5.77152 30.8 6.17231 30.8C6.41279 30.8 6.65326 30.72 6.81358 30.64C7.13421 30.48 7.37469 30.16 7.45485 29.84C7.53501 29.52 7.45485 29.12 7.29453 28.8C5.45088 25.68 4.88977 22 5.85168 18.48C6.81358 14.96 9.05802 12 12.1842 10.16C17.3945 7.20001 24.0477 8.88 27.0136 13.92C28.1358 15.84 28.4564 18 27.8953 20.16C27.3342 22.32 25.9715 24.08 24.0477 25.2C22.6049 26.08 20.8414 26.32 19.158 25.84C17.4747 25.44 16.112 24.4 15.2302 22.96C14.589 21.84 14.4287 20.56 14.7493 19.36C15.0699 18.08 15.8715 17.04 16.9937 16.4C17.7953 15.92 18.8374 15.76 19.7191 16C20.681 16.24 21.4025 16.8 21.9636 17.68C22.3644 18.32 23.166 18.56 23.8072 18.16C24.1279 18 24.3683 17.68 24.4485 17.36C24.5287 17.04 24.4485 16.64 24.2882 16.32C23.4064 14.88 22.0437 13.84 20.4406 13.44C18.8374 13.04 17.1541 13.28 15.631 14.08C13.8675 15.12 12.6652 16.72 12.1842 18.64C11.7033 20.56 11.9437 22.56 12.9858 24.32C14.1882 26.4 16.1922 27.84 18.5168 28.48C20.8414 29.12 23.3263 28.72 25.4104 27.52C27.9755 26.08 29.739 23.68 30.4604 20.8C31.262 18 30.8612 15.04 29.3382 12.56Z" fill="white"/>
</g>
<defs>
<clipPath id="clip0_3648_30744">
<rect width="153.905" height="32" fill="white"/>
</clipPath>
</defs>
</svg>
