<svg width="240" height="180" viewBox="0 0 240 180" fill="none" xmlns="http://www.w3.org/2000/svg">
<path fill-rule="evenodd" clip-rule="evenodd" d="M147.253 74.4531C142.967 76.0434 140.872 80.0133 140.894 86.5062C140.916 92.8951 142.446 96.3592 146.05 98.1798C148.716 99.5271 153.058 99.5815 155.571 98.2995C157.827 97.1484 157.951 96.9086 156.965 95.6016C156.161 94.5358 156.128 94.5317 154.272 95.2743C151.776 96.2726 149.889 96.2232 148.092 95.1125C145.893 93.7538 144.982 91.4784 144.784 86.8552C144.64 83.5095 144.764 82.5861 145.587 80.886C146.123 79.7794 147.074 78.5386 147.7 78.1279C149.171 77.1645 151.871 77.1369 153.669 78.0671C155.471 78.9988 156.021 78.9879 156.766 78.0059C157.738 76.7252 157.504 76.1527 155.617 75.1897C153.205 73.9589 149.471 73.6302 147.253 74.4531ZM37.2686 74.3792C37.2727 74.4413 38.8544 79.8986 40.7834 86.5062L44.29 98.5198L46.6687 98.6567C47.977 98.7324 49.0474 98.6957 49.0474 98.5756C49.0474 98.455 50.5774 93.2547 52.4475 87.0189C54.3175 80.7831 55.8476 75.3511 55.8476 74.9477C55.8476 74.3665 55.4545 74.2427 53.9607 74.3533L52.0739 74.4925L49.4563 83.7861C48.0165 88.8975 46.8101 93.1817 46.7752 93.3063C46.7403 93.431 45.7937 90.2689 44.6717 86.2795C43.5497 82.29 42.3265 77.9552 41.9539 76.6459L41.2761 74.2658H39.2683C38.1639 74.2658 37.264 74.3171 37.2686 74.3792ZM59.2055 75.4051C58.856 76.7987 59.672 77.8926 61.061 77.8926C62.4501 77.8926 63.2661 76.7987 62.9166 75.4051C62.6799 74.4626 62.359 74.2658 61.061 74.2658C59.7631 74.2658 59.4421 74.4626 59.2055 75.4051ZM133.37 86.5062V98.7465H135.183H136.996V86.5062V74.2658H135.183H133.37V86.5062ZM72.0547 81.7125C71.1199 82.0461 70.3546 82.1391 70.3546 81.9192C70.3546 81.6993 69.7426 81.5194 68.9946 81.5194H67.6346V90.1329V98.7465H69.4479H71.2613V91.935V85.1234L72.4241 84.6814C74.0308 84.0708 76.8615 84.1274 77.5175 84.7834C77.8919 85.1579 78.0615 87.4287 78.0615 92.0628V98.7986L79.9882 98.659L81.9149 98.5198L82.0396 91.6562C82.1792 83.9978 82.0496 84.2607 85.685 84.2458C88.8697 84.2326 88.9418 84.4035 88.9418 91.9622V98.7465H90.7552H92.5685V91.594C92.5685 85.7151 92.4371 84.253 91.8291 83.3858C90.2361 81.1113 85.7244 80.3969 82.3959 81.892C80.6846 82.6604 80.5431 82.66 79.0131 81.8802C77.1412 80.9255 74.4415 80.8606 72.0547 81.7125ZM182.039 81.7215C181.097 82.1314 180.462 82.1889 180.165 81.892C179.918 81.6449 179.233 81.5107 178.643 81.5942L177.571 81.746V90.1329V98.5198H179.384H181.198L181.322 91.6562C181.462 83.9978 181.332 84.2607 184.968 84.2458C188.152 84.2326 188.224 84.4035 188.224 91.9622V98.7465H190.038H191.851V91.935V85.1234L193.014 84.6814C194.785 84.0082 197.59 84.1492 198.392 84.9516C198.974 85.5337 199.105 86.8634 199.105 92.2052V98.7465H200.918H202.731V92.1585C202.731 87.5896 202.54 85.1126 202.107 84.0762C200.935 81.2718 196.3 80.2115 192.559 81.892C190.847 82.6604 190.706 82.66 189.176 81.8802C187.295 80.9209 184.045 80.8489 182.039 81.7215ZM59.2327 82.0742C59.104 82.4102 59.0545 86.2473 59.123 90.6021L59.2477 98.5198H61.061H62.8744V90.1329V81.746L61.1707 81.605C60.0546 81.513 59.3864 81.6748 59.2327 82.0742ZM96.6487 93.7597V106H98.462H100.275V102.116C100.275 98.343 100.304 98.241 101.254 98.5429C102.957 99.0833 106.345 98.9355 107.748 98.2596C108.505 97.8951 109.598 96.7105 110.231 95.5703C111.162 93.8921 111.357 92.9337 111.341 90.1329C111.317 86.0129 110.417 83.6981 108.349 82.4378C106.673 81.4155 102.988 81.1997 100.881 82.0008C99.9871 82.3408 99.5668 82.3408 99.4535 82.0008C99.3656 81.7361 98.6982 81.5194 97.9711 81.5194H96.6487V93.7597ZM118.441 82.3136C115.743 83.6895 115.03 85.1475 114.853 89.6465C114.655 94.7149 115.624 96.9893 118.549 98.3172C120.671 99.2805 124.48 99.46 127.136 98.7224C128.599 98.3163 128.836 98.0678 128.836 96.9413V95.632L124.869 95.8859C120.44 96.1688 119.183 95.6311 118.61 93.2075L118.318 91.9749L123.917 91.8475L129.516 91.7196L129.448 88.6931C129.334 83.5889 127.371 81.5189 122.646 81.5203C121.019 81.5207 119.396 81.8267 118.441 82.3136ZM163.064 82.1595C159.971 83.5336 158.753 85.9612 158.764 90.7291C158.778 96.5428 161.264 99.1976 166.698 99.1989C170.34 99.2003 172.255 98.1453 173.698 95.3428C174.569 93.6509 174.806 92.5166 174.784 90.1352C174.733 84.6347 171.843 81.5008 166.856 81.537C165.518 81.547 163.812 81.8267 163.064 82.1595ZM106.597 85.1207C108.265 86.7886 108.447 92.5175 106.907 94.8672C106.289 95.8102 105.79 96.025 104.232 96.0201C100.177 96.0069 100.275 96.1552 100.275 90.1134C100.275 84.1342 100.12 84.3922 103.789 84.292C105.144 84.2548 105.977 84.501 106.597 85.1207ZM169.499 85.3333C170.71 86.376 170.771 86.6136 170.771 90.3596C170.771 94.1056 170.71 94.3431 169.499 95.3858C167.827 96.8234 165.564 96.832 163.908 95.4076C162.832 94.4819 162.635 93.9229 162.469 91.3229C162.258 87.9963 162.859 85.9526 164.36 84.9013C165.8 83.8931 168.044 84.0821 169.499 85.3333ZM125.102 85.2595C125.353 85.5714 125.7 86.4889 125.873 87.2995L126.188 88.7729H122.298C118.805 88.7729 118.409 88.6867 118.409 87.9274C118.409 87.4623 118.832 86.5442 119.349 85.8873C120.131 84.8931 120.653 84.6928 122.467 84.6928C123.665 84.6928 124.85 84.948 125.102 85.2595Z" fill="#60605C"/>
</svg>
